<svg width="32" height="32" viewBox="0 0 32 32" fill="none" xmlns="http://www.w3.org/2000/svg">
<path d="M16 1.27344C7.85078 1.27344 1.27374 7.85047 1.27374 15.9997C1.27374 24.1489 7.85078 30.7259 16 30.7259C24.1492 30.7259 30.7262 24.1489 30.7262 15.9997C30.7262 7.85047 24.1492 1.27344 16 1.27344ZM16 2.56594C23.4565 2.56594 29.4337 8.54313 29.4337 15.9997C29.4337 23.4562 23.4565 29.4334 16 29.4334C8.54343 29.4334 2.56624 23.4562 2.56624 15.9997C2.56624 8.54313 8.54343 2.56594 16 2.56594ZM14.0375 8.95968C10.2405 8.95968 7.38327 9.61725 7.24374 9.64968H7.24249V9.65093C6.21792 9.89015 5.5718 10.9305 5.80999 11.9547C6.04817 12.9798 7.08832 13.6243 8.11249 13.3897H8.11749L8.12124 13.3884C8.04853 13.4062 8.15313 13.3808 8.22999 13.3647C8.30685 13.3485 8.42033 13.3262 8.56749 13.2984C8.8618 13.243 9.28907 13.1685 9.82123 13.0947C10.8856 12.9469 12.3684 12.7997 14.0375 12.7997H14.0775C16.8377 12.8035 20.8041 13.2271 23.9875 15.0959H23.9887V15.0972C24.2911 15.2735 24.6282 15.3597 24.9587 15.3597C25.6173 15.3597 26.2609 15.0157 26.6162 14.4109C27.149 13.5035 26.8403 12.3169 25.9325 11.7834C21.9368 9.43761 17.2857 8.96425 14.0825 8.95968H14.0375ZM14.0375 10.2397H14.0825C17.1576 10.2442 21.6011 10.7251 25.2837 12.8872C25.5958 13.0705 25.6952 13.4523 25.5125 13.7634C25.3903 13.9714 25.1782 14.0797 24.9587 14.0797C24.8498 14.0797 24.7413 14.0529 24.6362 13.9922L24.6337 13.9909C21.1284 11.934 16.9626 11.5236 14.0787 11.5197H14.0375C12.2934 11.5197 10.756 11.6731 9.64623 11.8272C9.09136 11.9042 8.64255 11.9808 8.32999 12.0397C8.17371 12.0691 8.05147 12.0943 7.96624 12.1122C7.88612 12.129 7.89187 12.1266 7.82749 12.1422C7.47181 12.2237 7.13805 12.0168 7.05624 11.6647C6.97451 11.3133 7.18172 10.9797 7.53249 10.8972C7.62976 10.8746 10.3887 10.2397 14.0375 10.2397ZM14.075 14.0809C12.4709 14.0944 11.0861 14.2442 10.075 14.3984C9.06392 14.5526 8.48962 14.692 8.30499 14.7447C7.38898 15.0044 6.84612 15.9752 7.10624 16.8922C7.36719 17.81 8.33781 18.3502 9.25374 18.0897L9.25749 18.0884H9.25999C9.27659 18.0845 9.30252 18.0785 9.33623 18.0709C9.40367 18.0558 9.50317 18.0354 9.63123 18.0097C9.88737 17.9582 10.2567 17.8887 10.7137 17.8197C11.6279 17.6817 12.8912 17.5421 14.2862 17.5297C16.7587 17.5079 19.5633 17.8712 22.3 19.5759C22.5853 19.755 22.9073 19.8409 23.22 19.8409C23.7997 19.8409 24.3697 19.547 24.6975 19.0222C25.2019 18.2133 24.9506 17.1296 24.1412 16.6259C20.6951 14.4789 16.9988 14.0567 14.075 14.0809ZM14.0862 15.3597C16.8776 15.3365 20.3038 15.7427 23.465 17.7122C23.686 17.8497 23.7493 18.1232 23.6112 18.3447C23.5217 18.488 23.3737 18.5609 23.22 18.5609C23.1358 18.5609 23.0556 18.5396 22.98 18.4922L22.9787 18.4909C19.9763 16.6201 16.8837 16.2267 14.275 16.2497C12.8016 16.2628 11.4821 16.4098 10.5225 16.5547C10.0427 16.6271 9.6533 16.6995 9.37873 16.7547C9.24145 16.7823 9.13292 16.805 9.05624 16.8222C9.01789 16.8307 8.98767 16.8381 8.96498 16.8434C8.9423 16.8488 8.97806 16.8372 8.89749 16.8609L8.90374 16.8584C8.65871 16.9281 8.40805 16.7904 8.33749 16.5422C8.26618 16.2908 8.403 16.0469 8.65374 15.9759H8.65499C8.64763 15.978 9.30607 15.81 10.2675 15.6634C11.2289 15.5168 12.5562 15.3725 14.0862 15.3597ZM14.4 18.5609C11.6103 18.5616 9.54513 19.2396 9.41373 19.2834C8.58238 19.5601 8.12548 20.4762 8.40249 21.3072C8.6796 22.1385 9.59573 22.5998 10.4287 22.3172L10.4187 22.3209C10.4829 22.3003 10.5208 22.2869 10.715 22.2347C10.9092 22.1824 11.1947 22.1125 11.5512 22.0422C12.2642 21.9016 13.2639 21.7612 14.4 21.7609C17.1756 21.7603 19.0713 22.4249 20.5525 23.4122V23.4109C20.8237 23.5921 21.1348 23.6809 21.4387 23.6809C21.955 23.6809 22.4658 23.4259 22.7712 22.9672C23.2567 22.2384 23.0558 21.236 22.3275 20.7497C19.9945 19.1946 17.3696 18.5596 14.4 18.5609ZM14.4 19.8409C17.1903 19.8397 19.5165 20.4142 21.6175 21.8147C21.77 21.9174 21.808 22.1057 21.7062 22.2584C21.6418 22.3552 21.5433 22.4009 21.4387 22.4009C21.3765 22.4009 21.3189 22.3849 21.2625 22.3472V22.3459C19.5769 21.2224 17.3843 20.4803 14.4 20.4809C13.1591 20.4813 12.0803 20.6328 11.3037 20.7859C10.9154 20.8625 10.6017 20.9394 10.3825 20.9984C10.1633 21.0574 9.97233 21.1199 10.0275 21.1022L10.0225 21.1034L10.0175 21.1047C9.84697 21.1625 9.67448 21.0769 9.61623 20.9022C9.55799 20.7274 9.64462 20.555 9.81873 20.4972C9.8563 20.4847 11.8201 19.8415 14.4 19.8409Z" fill="#110283"/>
</svg>
